<svg width="72" height="47" viewBox="0 0 72 47" fill="none" xmlns="http://www.w3.org/2000/svg">
<g clip-path="url(#clip0_111_11132)">
<path d="M29.6221 2.3022C32.0596 2.57301 34.0907 4.33343 35.9865 6.63554C37.8824 4.33343 40.0624 2.3022 42.7707 2.3022C46.2916 2.3022 47.8973 5.49676 47.4969 8.21286C47.0907 10.9689 46.0205 11.3751 41.2679 17.1981L36.6638 22.6147C35.7658 23.5713 36.2075 23.5713 35.3096 22.6147L33.6846 20.5835L32.3303 18.9584L30.8408 17.1981C25.8435 11.3751 24.685 9.88554 24.4893 8.21286C24.0829 4.73972 26.3852 1.94257 29.6221 2.3022Z" fill="url(#paint0_linear_111_11132)"/>
<path d="M42.7709 0.258301C39.95 0.258301 37.8155 1.91379 36 3.64372C34.2701 1.80798 32.0501 0.258301 29.2292 0.258301C25.2564 0.258301 22.4584 3.67416 22.4584 7.39901C22.4584 9.39724 23.2768 10.8369 24.1731 12.1885L34.6958 24.8043C35.8773 26.0543 36.0999 26.0543 37.2814 24.8043L47.8278 12.1885C48.8815 10.8369 49.5417 9.39724 49.5417 7.39901C49.5417 3.67421 46.7436 0.258301 42.7709 0.258301ZM46.1563 11.8382L36 23.9562L25.8438 11.7882C24.6293 10.0997 24.1511 8.96055 24.1511 7.39901C24.1511 4.48923 26.2289 1.86976 29.2292 1.8452C31.6972 1.82489 34.4944 4.34532 36 6.2454C37.4659 4.41134 40.3029 1.8452 42.7709 1.8452C45.6916 1.8452 47.849 4.48923 47.849 7.39901C47.849 8.96055 47.4707 10.1843 46.1563 11.8382Z" fill="black"/>
</g>
<path d="M7.43066 34.0469H8.74316V44H7.43066V36.3301L2.5293 44H1.20996V34.0469H2.5293V41.7168L7.43066 34.0469ZM15.0049 38.627C15.0049 38.2806 14.8727 38.0072 14.6084 37.8066C14.3441 37.6016 13.9818 37.499 13.5215 37.499C13.0749 37.499 12.7012 37.6152 12.4004 37.8477C12.1042 38.0801 11.9561 38.3535 11.9561 38.668H10.6982C10.6982 38.0254 10.9671 37.499 11.5049 37.0889C12.0426 36.6787 12.7148 36.4736 13.5215 36.4736C14.3874 36.4736 15.0618 36.6605 15.5449 37.0342C16.028 37.4033 16.2695 37.932 16.2695 38.6201C16.2695 38.9528 16.1693 39.2581 15.9688 39.5361C15.7682 39.8141 15.4834 40.0352 15.1143 40.1992C15.9756 40.4909 16.4062 41.0651 16.4062 41.9219C16.4062 42.6009 16.1442 43.1387 15.6201 43.5352C15.096 43.9316 14.3965 44.1299 13.5215 44.1299C12.6693 44.1299 11.9652 43.9225 11.4092 43.5078C10.8577 43.0885 10.582 42.5234 10.582 41.8125H11.8398C11.8398 42.1725 11.9993 42.4824 12.3184 42.7422C12.6419 42.9974 13.043 43.125 13.5215 43.125C14.0046 43.125 14.3942 43.0133 14.6904 42.79C14.9867 42.5667 15.1348 42.2773 15.1348 41.9219C15.1348 41.5072 15.0094 41.2109 14.7588 41.0332C14.5127 40.8509 14.1276 40.7598 13.6035 40.7598H12.3389V39.6934H13.7129C14.5742 39.6706 15.0049 39.3151 15.0049 38.627ZM21.2939 37.0273C22.2236 37.0273 22.9665 37.3395 23.5225 37.9639C24.083 38.5837 24.3633 39.4017 24.3633 40.418V40.5342C24.3633 41.2314 24.2288 41.8558 23.96 42.4072C23.6911 42.9541 23.3037 43.3802 22.7979 43.6855C22.2965 43.9863 21.7178 44.1367 21.0615 44.1367C20.068 44.1367 19.2682 43.8063 18.6621 43.1455C18.056 42.4801 17.7529 41.5892 17.7529 40.4727V39.8574C17.7529 38.3034 18.04 37.0684 18.6143 36.1523C19.193 35.2363 20.0452 34.6781 21.1709 34.4775C21.8089 34.3636 22.2396 34.2246 22.4629 34.0605C22.6862 33.8965 22.7979 33.6709 22.7979 33.3838H23.8369C23.8369 33.9535 23.707 34.3978 23.4473 34.7168C23.1921 35.0358 22.7819 35.2614 22.2168 35.3936L21.2734 35.6055C20.5215 35.7832 19.9564 36.084 19.5781 36.5078C19.2044 36.9271 18.9606 37.4876 18.8467 38.1895C19.5166 37.4147 20.3324 37.0273 21.2939 37.0273ZM21.0479 38.0664C20.4281 38.0664 19.9359 38.276 19.5713 38.6953C19.2067 39.11 19.0244 39.6865 19.0244 40.4248V40.5342C19.0244 41.3271 19.2067 41.9561 19.5713 42.4209C19.9404 42.8812 20.4372 43.1113 21.0615 43.1113C21.6904 43.1113 22.1872 42.8789 22.5518 42.4141C22.9163 41.9492 23.0986 41.2702 23.0986 40.377C23.0986 39.6797 22.9141 39.1214 22.5449 38.7021C22.1803 38.2783 21.6813 38.0664 21.0479 38.0664ZM31.9102 40.3838C31.9102 41.5094 31.6527 42.4163 31.1377 43.1045C30.6227 43.7926 29.9255 44.1367 29.0459 44.1367C28.1481 44.1367 27.4417 43.8519 26.9268 43.2822V46.8438H25.6621V36.6035H26.8174L26.8789 37.4238C27.3939 36.7858 28.1094 36.4668 29.0254 36.4668C29.9141 36.4668 30.6159 36.8018 31.1309 37.4717C31.6504 38.1416 31.9102 39.0736 31.9102 40.2676V40.3838ZM30.6455 40.2402C30.6455 39.4062 30.4678 38.7477 30.1123 38.2646C29.7568 37.7816 29.2692 37.54 28.6494 37.54C27.8838 37.54 27.3096 37.8796 26.9268 38.5586V42.0928C27.305 42.7673 27.8838 43.1045 28.6631 43.1045C29.2692 43.1045 29.75 42.8652 30.1055 42.3867C30.4655 41.9036 30.6455 41.1882 30.6455 40.2402ZM38.0898 44C38.0169 43.8542 37.9577 43.5944 37.9121 43.2207C37.3242 43.8314 36.6224 44.1367 35.8066 44.1367C35.0775 44.1367 34.4782 43.9316 34.0088 43.5215C33.5439 43.1068 33.3115 42.5827 33.3115 41.9492C33.3115 41.179 33.6032 40.582 34.1865 40.1582C34.7744 39.7298 35.5993 39.5156 36.6611 39.5156H37.8916V38.9346C37.8916 38.4925 37.7594 38.1416 37.4951 37.8818C37.2308 37.6175 36.8411 37.4854 36.3262 37.4854C35.875 37.4854 35.4967 37.5993 35.1914 37.8271C34.8861 38.055 34.7334 38.3307 34.7334 38.6543H33.4619C33.4619 38.2852 33.5918 37.9297 33.8516 37.5879C34.1159 37.2415 34.4714 36.9681 34.918 36.7676C35.3691 36.5671 35.8636 36.4668 36.4014 36.4668C37.2536 36.4668 37.9212 36.681 38.4043 37.1094C38.8874 37.5332 39.138 38.1188 39.1562 38.8662V42.2705C39.1562 42.9495 39.2428 43.4896 39.416 43.8906V44H38.0898ZM35.9912 43.0361C36.3877 43.0361 36.7637 42.9336 37.1191 42.7285C37.4746 42.5234 37.7321 42.2568 37.8916 41.9287V40.4111H36.9004C35.3509 40.4111 34.5762 40.8646 34.5762 41.7715C34.5762 42.168 34.7083 42.4779 34.9727 42.7012C35.237 42.9245 35.5765 43.0361 35.9912 43.0361ZM47.1816 44H45.917V40.8418H42.5195V44H41.248V36.6035H42.5195V39.8096H45.917V36.6035H47.1816V44ZM55.2617 44H53.9971V40.8418H50.5996V44H49.3281V36.6035H50.5996V39.8096H53.9971V36.6035H55.2617V44ZM56.9639 40.2334C56.9639 39.5088 57.1051 38.8571 57.3877 38.2783C57.6748 37.6995 58.0713 37.2529 58.5771 36.9385C59.0876 36.624 59.6686 36.4668 60.3203 36.4668C61.3275 36.4668 62.141 36.8154 62.7607 37.5127C63.3851 38.21 63.6973 39.1374 63.6973 40.2949V40.3838C63.6973 41.1038 63.5583 41.751 63.2803 42.3252C63.0068 42.8949 62.6126 43.3392 62.0977 43.6582C61.5872 43.9772 60.9993 44.1367 60.334 44.1367C59.3314 44.1367 58.5179 43.7881 57.8936 43.0908C57.2738 42.3936 56.9639 41.4707 56.9639 40.3223V40.2334ZM58.2354 40.3838C58.2354 41.2041 58.4245 41.8626 58.8027 42.3594C59.1855 42.8561 59.696 43.1045 60.334 43.1045C60.9766 43.1045 61.487 42.8538 61.8652 42.3525C62.2435 41.8467 62.4326 41.1403 62.4326 40.2334C62.4326 39.4222 62.2389 38.766 61.8516 38.2646C61.4688 37.7588 60.9583 37.5059 60.3203 37.5059C59.696 37.5059 59.1924 37.7542 58.8096 38.251C58.4268 38.7477 58.2354 39.4587 58.2354 40.3838ZM68.3525 44.1367C67.3499 44.1367 66.5342 43.8086 65.9053 43.1523C65.2764 42.4915 64.9619 41.6097 64.9619 40.5068V40.2744C64.9619 39.5407 65.1009 38.8867 65.3789 38.3125C65.6615 37.7337 66.0534 37.2826 66.5547 36.959C67.0605 36.6309 67.6074 36.4668 68.1953 36.4668C69.1569 36.4668 69.9043 36.7835 70.4375 37.417C70.9707 38.0505 71.2373 38.9574 71.2373 40.1377V40.6641H66.2266C66.2448 41.3932 66.4567 41.9834 66.8623 42.4346C67.2725 42.8812 67.792 43.1045 68.4209 43.1045C68.8675 43.1045 69.2458 43.0133 69.5557 42.8311C69.8656 42.6488 70.1367 42.4072 70.3691 42.1064L71.1416 42.708C70.5218 43.6605 69.5921 44.1367 68.3525 44.1367ZM68.1953 37.5059C67.6849 37.5059 67.2565 37.6927 66.9102 38.0664C66.5638 38.4355 66.3496 38.9551 66.2676 39.625H69.9727V39.5293C69.9362 38.8867 69.763 38.39 69.4531 38.0391C69.1432 37.6836 68.724 37.5059 68.1953 37.5059Z" fill="black"/>
<defs>
<linearGradient id="paint0_linear_111_11132" x1="11.5855" y1="-12.3548" x2="51.8289" y2="-7.10721" gradientUnits="userSpaceOnUse">
<stop stop-color="#F64D4D"/>
<stop offset="1" stop-color="#4D5EF6"/>
</linearGradient>
<clipPath id="clip0_111_11132">
<rect width="27.0833" height="26" fill="white" transform="translate(22.4584)"/>
</clipPath>
</defs>
</svg>
