<svg width="29" height="25" viewBox="0 0 29 25" fill="none" xmlns="http://www.w3.org/2000/svg">
<path d="M20.8034 0.682281C19.4746 0.702238 18.1747 1.06039 17.0352 1.72056C15.8956 2.38074 14.9566 3.31956 14.313 4.44222C13.6695 3.31956 12.7305 2.38074 11.5909 1.72056C10.4513 1.06039 9.15146 0.702238 7.82264 0.682281C5.70435 0.771142 3.70858 1.66585 2.27134 3.17094C0.834111 4.67604 0.072247 6.66916 0.152197 8.71488C0.152197 13.8956 5.8 19.5538 10.5368 23.39C11.5944 24.2481 12.9316 24.7186 14.313 24.7186C15.6945 24.7186 17.0316 24.2481 18.0892 23.39C22.826 19.5538 28.4738 13.8956 28.4738 8.71488C28.5538 6.66916 27.7919 4.67604 26.3547 3.17094C24.9175 1.66585 22.9217 0.771142 20.8034 0.682281ZM16.5728 21.6468C15.9403 22.1611 15.14 22.4431 14.313 22.4431C13.4861 22.4431 12.6857 22.1611 12.0532 21.6468C5.98999 16.735 2.51233 12.0225 2.51233 8.71488C2.43166 7.27325 2.94467 5.8593 3.93946 4.78141C4.93426 3.70353 6.33013 3.04917 7.82264 2.96103C9.31515 3.04917 10.711 3.70353 11.7058 4.78141C12.7006 5.8593 13.2136 7.27325 13.1329 8.71488C13.1329 9.01707 13.2573 9.30687 13.4786 9.52054C13.6999 9.73422 14 9.85426 14.313 9.85426C14.626 9.85426 14.9261 9.73422 15.1474 9.52054C15.3688 9.30687 15.4931 9.01707 15.4931 8.71488C15.4124 7.27325 15.9254 5.8593 16.9202 4.78141C17.915 3.70353 19.3109 3.04917 20.8034 2.96103C22.2959 3.04917 23.6918 3.70353 24.6866 4.78141C25.6814 5.8593 26.1944 7.27325 26.1137 8.71488C26.1137 12.0225 22.636 16.735 16.5728 21.6422V21.6468Z" fill="#031412"/>
</svg>
